<?xml version="1.0" standalone="no"?>
<!DOCTYPE svg PUBLIC "-//W3C//DTD SVG 20010904//EN"
 "http://www.w3.org/TR/2001/REC-SVG-20010904/DTD/svg10.dtd">
<svg version="1.0" xmlns="http://www.w3.org/2000/svg"
 width="813.000000pt" height="813.000000pt" viewBox="0 0 813.000000 813.000000"
 preserveAspectRatio="xMidYMid meet">
<metadata>
Created by potrace 1.10, written by Peter Selinger 2001-2011
</metadata>
<g transform="translate(0.000000,813.000000) scale(0.100000,-0.100000)"
fill="#000000" stroke="none">
<path d="M1352 7938 c-34 -26 -43 -40 -49 -77 -4 -25 -8 -1340 -8 -2921 0
-2341 2 -2882 13 -2912 17 -48 93 -92 176 -103 33 -4 65 -9 72 -12 28 -11 23
-36 -17 -81 -52 -59 -65 -90 -74 -174 -12 -109 5 -102 -277 -103 l-243 0 -52
-28 c-29 -15 -58 -27 -64 -27 -14 0 -102 -62 -147 -104 -71 -65 -133 -179
-154 -281 -16 -78 -4 -237 21 -285 26 -50 27 -83 3 -118 -67 -98 -82 -133 -88
-210 -10 -118 12 -195 74 -254 31 -31 81 -67 102 -73 13 -4 36 -16 50 -26 14
-10 63 -25 110 -34 47 -8 101 -19 120 -25 19 -5 82 -10 140 -10 83 1 128 7
213 29 59 16 117 37 127 46 11 10 41 20 67 22 40 4 55 0 87 -22 91 -62 389
-68 453 -9 48 44 102 44 167 0 61 -41 294 -54 400 -22 44 13 57 13 120 0 38
-8 90 -21 113 -29 64 -22 188 -19 264 6 76 25 185 22 237 -5 57 -30 245 -10
319 32 6 4 39 26 72 50 69 47 103 53 137 20 78 -77 132 -92 329 -92 154 0 212
12 259 51 37 31 91 27 136 -10 17 -15 51 -29 78 -34 26 -4 220 -8 432 -8 293
0 398 4 440 14 80 20 145 17 235 -13 103 -33 223 -36 308 -6 72 25 147 25 220
0 100 -35 237 -21 357 39 34 16 38 16 76 -1 105 -45 379 -40 437 8 28 24 44
23 94 -5 48 -28 160 -61 205 -61 56 0 177 39 206 67 11 10 28 26 38 35 45 41
93 104 108 143 17 46 26 123 20 182 -8 72 -13 81 -137 222 -44 50 -48 60 -44
93 4 27 20 54 59 99 44 49 59 75 77 136 l23 76 -22 86 c-13 47 -36 106 -52
130 -15 25 -28 50 -28 57 0 6 -11 19 -25 28 -14 9 -25 23 -25 30 0 8 -15 23
-32 35 -18 11 -43 28 -56 37 -15 11 -50 19 -100 22 -42 3 -87 11 -99 19 -22
14 -53 79 -53 111 0 9 -26 45 -58 78 -58 63 -162 124 -210 124 -31 0 -92 26
-92 40 0 9 34 65 64 105 12 15 -53 123 -118 197 -9 10 -27 34 -41 55 -14 21
-36 54 -50 73 -14 19 -36 51 -49 70 -13 19 -30 41 -39 48 -8 7 -21 27 -28 45
-7 18 -22 39 -32 47 -10 8 -23 25 -30 36 -7 12 -33 50 -59 85 -26 35 -67 90
-90 122 -42 57 -70 98 -116 170 -13 20 -28 37 -33 37 -6 0 -16 15 -24 33 -8
19 -21 40 -30 47 -9 7 -23 27 -32 44 -9 17 -25 41 -37 52 -30 31 -86 109 -86
121 0 5 -11 20 -25 33 -14 13 -25 29 -25 36 0 7 -8 19 -18 26 -9 7 -39 45 -65
83 -26 39 -63 90 -82 115 -19 25 -43 61 -54 80 -10 19 -28 44 -40 54 -12 11
-21 23 -21 29 0 5 -12 24 -27 42 -16 18 -44 56 -63 84 -19 28 -44 62 -55 75
-11 14 -31 41 -45 61 -14 20 -40 56 -57 81 -18 24 -33 47 -33 51 0 4 -9 16
-20 28 -25 25 -63 78 -90 127 -11 21 -25 38 -31 38 -5 0 -17 16 -25 35 -8 20
-21 38 -30 42 -8 3 -24 23 -35 44 -24 49 -123 147 -156 155 -44 12 -118 -1
-141 -24 -12 -12 -26 -22 -31 -22 -6 0 -21 -10 -35 -22 -14 -13 -43 -36 -65
-52 -42 -31 -71 -86 -71 -135 0 -43 38 -142 60 -158 11 -8 20 -21 20 -29 0 -8
9 -22 21 -32 11 -9 29 -34 40 -54 11 -21 24 -38 29 -38 5 0 18 -15 27 -34 10
-18 36 -58 59 -87 22 -30 48 -68 57 -85 9 -17 23 -34 32 -37 8 -4 15 -13 15
-20 0 -8 7 -21 16 -28 17 -14 50 -60 90 -125 11 -19 28 -42 37 -51 21 -22 60
-77 83 -118 9 -16 26 -40 38 -51 12 -12 31 -37 44 -55 13 -19 40 -57 60 -86
20 -28 60 -84 87 -123 28 -39 62 -86 76 -103 15 -18 29 -42 33 -54 4 -13 11
-23 16 -23 9 0 68 -83 98 -137 7 -13 23 -34 35 -47 12 -13 35 -41 50 -63 15
-21 40 -55 55 -75 15 -20 37 -52 50 -70 13 -18 40 -58 62 -88 22 -30 49 -70
62 -88 13 -19 34 -48 48 -65 14 -18 31 -44 38 -59 6 -16 16 -28 22 -28 5 0 19
-18 30 -40 11 -22 25 -40 30 -40 5 0 19 -17 30 -37 11 -21 34 -56 51 -78 17
-22 39 -54 49 -70 33 -52 78 -79 135 -80 109 -3 124 -6 139 -21 23 -22 20 -43
-9 -56 -13 -6 -29 -23 -34 -37 -6 -14 -20 -38 -32 -52 -17 -22 -22 -46 -28
-133 -4 -78 -10 -109 -21 -116 -29 -19 -92 -11 -139 18 l-46 27 -230 0 -230 0
-55 -29 c-75 -40 -142 -41 -197 -3 l-39 27 -400 0 -399 0 -47 -25 c-57 -31
-99 -31 -158 -3 -37 18 -68 22 -177 26 -133 4 -133 4 -181 -26 -26 -16 -64
-35 -84 -42 -40 -15 -33 -16 -168 40 -47 20 -77 24 -202 28 -143 4 -147 3
-191 -22 -58 -35 -112 -34 -180 1 l-52 28 -225 0 c-223 0 -226 0 -280 -26 -30
-15 -71 -34 -90 -43 -19 -9 -53 -28 -75 -41 -22 -14 -44 -25 -50 -25 -5 0 -32
15 -59 33 -131 85 -160 97 -258 103 -51 3 -106 10 -121 16 -29 11 -57 53 -57
86 0 40 -109 162 -167 187 -22 9 -33 21 -33 34 0 43 22 45 475 47 510 2 485 2
485 13 0 14 -128 202 -163 241 -8 8 -21 29 -30 45 -8 17 -24 39 -36 49 -12 11
-21 23 -21 29 0 5 -11 23 -26 41 -74 91 -94 119 -94 131 0 8 -8 20 -18 27 -11
7 -25 24 -32 38 -7 14 -19 32 -27 40 -13 14 -60 79 -115 158 -13 18 -38 51
-55 74 -18 22 -33 45 -33 52 0 7 -11 22 -25 34 -14 12 -25 29 -25 37 0 8 -11
22 -25 31 -14 9 -25 22 -25 29 0 7 -16 32 -35 55 -19 23 -35 46 -35 52 0 6
-11 23 -24 38 -42 51 -56 235 -25 342 8 30 39 73 85 119 32 32 25 51 -14 39
-57 -16 -189 -21 -265 -11 -78 11 -166 50 -214 95 -11 12 -27 26 -35 32 -64
54 -113 144 -137 254 l-23 101 22 97 c12 53 30 109 41 124 10 15 19 31 19 35
0 5 20 32 43 61 49 59 123 113 189 138 24 9 59 22 78 29 59 23 181 19 248 -9
31 -13 68 -27 82 -31 30 -10 116 -73 151 -111 32 -37 89 -127 89 -143 0 -6 9
-37 20 -69 27 -75 27 -169 0 -244 -11 -32 -20 -63 -20 -69 0 -14 -66 -115 -80
-124 -6 -3 -10 -13 -10 -21 0 -18 34 -11 109 22 68 31 159 33 205 5 17 -11 50
-24 73 -30 46 -13 160 -115 206 -186 15 -22 44 -65 66 -95 22 -30 45 -67 52
-82 6 -16 15 -28 20 -28 5 0 20 -17 34 -37 62 -92 87 -126 128 -178 20 -25 69
-95 147 -208 8 -12 23 -31 32 -42 28 -32 66 -87 88 -127 11 -21 25 -38 30 -38
5 0 19 -17 30 -37 11 -21 36 -58 55 -83 36 -47 67 -90 129 -180 21 -30 48 -66
61 -80 12 -14 43 -57 68 -96 26 -39 54 -77 62 -84 8 -7 15 -18 15 -25 0 -6 9
-20 21 -31 12 -10 30 -36 40 -56 11 -21 24 -38 30 -38 5 0 15 -13 22 -29 7
-15 27 -41 46 -57 l34 -28 201 -2 c219 -1 246 1 246 22 0 16 -40 79 -75 117
-14 15 -25 34 -25 41 0 7 -9 21 -21 32 -12 10 -30 36 -40 56 -11 21 -24 38
-29 38 -6 0 -18 16 -27 35 -9 19 -20 35 -24 35 -4 0 -21 21 -38 48 -44 68 -61
91 -101 142 -20 25 -48 63 -62 85 -15 22 -41 58 -57 80 -17 22 -38 54 -47 70
-9 17 -25 40 -37 52 -11 12 -25 31 -31 42 -6 11 -32 46 -58 79 -25 33 -52 70
-58 83 -7 13 -20 32 -29 41 -9 9 -26 31 -39 50 -13 18 -41 58 -62 88 -22 30
-50 70 -62 88 -13 19 -34 46 -47 60 -13 15 -30 42 -37 60 -8 17 -19 32 -25 32
-5 0 -17 16 -25 35 -8 19 -18 35 -23 35 -5 0 -31 33 -57 73 -27 39 -72 104
-101 142 -28 39 -63 85 -78 104 -14 19 -25 40 -25 46 0 7 -11 20 -25 29 -14 9
-25 22 -25 30 0 7 -9 21 -21 32 -12 10 -30 35 -40 54 -11 19 -35 55 -54 80
-20 25 -43 58 -53 74 -9 16 -27 39 -39 51 -13 12 -23 27 -23 34 0 6 -10 21
-22 33 -13 13 -32 36 -44 53 -56 83 -128 185 -159 225 -19 25 -44 62 -55 83
-11 20 -25 37 -31 37 -5 0 -17 17 -25 38 -9 20 -25 46 -35 58 -29 31 -45 172
-32 273 11 86 22 105 104 192 l46 49 -28 0 c-15 0 -45 -10 -66 -22 -33 -20
-52 -23 -143 -23 -89 0 -111 3 -145 22 -22 12 -55 26 -73 32 -60 19 -166 114
-213 193 -33 53 -69 182 -69 246 0 65 38 212 61 238 10 11 19 25 19 32 0 6 24
34 53 62 78 77 89 86 127 105 19 10 49 25 65 34 24 13 59 16 175 15 l145 0 70
-38 c70 -38 81 -46 137 -101 39 -38 108 -144 108 -165 0 -9 9 -43 20 -75 24
-70 26 -142 5 -193 -9 -20 -20 -56 -26 -80 -5 -24 -21 -60 -34 -80 -14 -20
-25 -42 -25 -49 0 -6 -10 -19 -22 -27 -38 -27 -10 -30 44 -5 45 21 65 24 167
24 113 -1 118 -1 176 -34 65 -37 166 -135 195 -191 10 -19 27 -44 39 -54 12
-11 21 -25 21 -33 0 -7 9 -21 21 -31 11 -9 29 -34 40 -54 11 -21 24 -38 30
-38 5 0 17 -15 25 -32 8 -18 33 -55 55 -83 36 -45 57 -74 109 -150 18 -26 47
-66 76 -103 12 -15 29 -42 38 -59 9 -18 21 -33 26 -33 5 0 19 -18 30 -40 11
-22 25 -40 31 -40 5 0 17 -17 26 -37 8 -21 21 -42 29 -48 14 -11 35 -39 111
-150 26 -38 64 -90 84 -115 20 -25 49 -65 65 -89 59 -90 76 -114 132 -182 17
-23 32 -45 32 -51 0 -6 11 -24 26 -42 39 -48 86 -111 114 -151 14 -20 36 -51
50 -68 14 -18 30 -39 35 -48 6 -9 27 -40 48 -70 21 -30 47 -69 58 -86 12 -18
25 -33 30 -33 5 0 18 -17 29 -38 26 -46 63 -100 88 -127 10 -11 40 -52 65 -91
26 -39 54 -77 62 -84 8 -7 15 -18 15 -26 0 -7 8 -19 18 -26 9 -7 39 -44 65
-83 26 -38 63 -90 82 -115 19 -25 43 -61 54 -80 11 -19 29 -43 40 -52 12 -10
21 -24 21 -31 0 -7 10 -23 23 -34 12 -11 30 -33 40 -49 17 -30 55 -84 83 -119
8 -11 33 -45 54 -75 22 -30 48 -67 60 -82 11 -14 20 -31 20 -37 0 -5 8 -16 18
-23 11 -7 25 -24 33 -38 8 -14 29 -46 48 -72 28 -38 41 -48 65 -49 93 -4 344
-4 359 -1 26 6 21 47 -11 84 -27 31 -46 58 -84 117 -19 28 -38 54 -79 104 -14
18 -34 46 -43 62 -9 17 -30 48 -47 70 -16 22 -42 58 -57 80 -15 22 -35 47 -44
57 -10 10 -18 25 -18 33 0 8 -11 22 -24 30 -14 9 -29 30 -35 46 -5 16 -15 29
-20 29 -6 0 -18 14 -26 31 -9 17 -37 58 -63 92 -75 98 -90 120 -112 160 -11
20 -25 37 -31 37 -5 0 -15 13 -20 29 -6 16 -17 32 -24 35 -8 3 -23 22 -33 43
-11 21 -29 47 -41 57 -12 11 -21 23 -21 29 0 5 -12 24 -27 42 -49 59 -93 122
-93 133 0 6 -9 16 -20 22 -11 6 -20 17 -20 24 0 8 -7 19 -15 26 -9 7 -40 50
-71 94 -30 45 -70 101 -89 126 -19 25 -44 62 -55 83 -12 21 -27 40 -35 43 -8
3 -17 16 -21 27 -3 12 -15 31 -25 42 -17 18 -50 63 -119 160 -12 17 -43 59
-69 95 -26 36 -64 99 -85 141 -34 71 -36 82 -36 173 0 87 3 102 29 150 36 68
88 134 113 141 10 4 18 11 18 16 0 16 -60 9 -113 -13 -68 -30 -198 -32 -240
-5 -14 9 -49 22 -77 28 -28 6 -54 17 -57 25 -3 8 -18 21 -34 30 -16 8 -44 31
-64 52 -19 20 -44 46 -55 58 -11 12 -25 36 -32 55 -6 19 -20 48 -32 64 -19 27
-21 44 -21 172 0 128 2 144 21 170 11 15 26 44 33 63 14 45 121 158 175 187
111 59 103 57 261 57 113 0 157 -4 176 -14 15 -8 48 -27 75 -42 27 -15 63 -42
81 -60 18 -18 45 -47 61 -63 16 -17 35 -48 42 -70 7 -22 23 -53 34 -68 19 -26
21 -42 21 -162 0 -119 -2 -136 -21 -162 -11 -15 -26 -43 -32 -61 -12 -35 -41
-78 -81 -118 l-24 -24 30 0 c19 0 37 9 50 24 17 19 35 26 89 31 111 12 210 1
253 -29 20 -14 42 -26 47 -26 14 0 111 -97 140 -140 14 -19 38 -53 55 -75 16
-22 41 -56 54 -75 13 -19 38 -53 54 -75 52 -69 121 -172 121 -180 0 -4 11 -16
25 -27 14 -11 25 -25 25 -32 0 -7 9 -21 21 -32 12 -10 30 -36 40 -56 11 -21
24 -38 29 -38 6 0 18 -16 27 -35 9 -19 20 -35 24 -35 6 0 49 -62 85 -122 6
-10 20 -29 31 -41 11 -12 27 -33 36 -47 9 -14 30 -43 46 -65 17 -22 40 -57 52
-77 13 -21 26 -38 31 -38 4 0 16 -17 27 -37 10 -21 28 -47 40 -57 12 -11 21
-24 21 -31 0 -7 12 -26 28 -43 45 -52 78 -96 92 -122 7 -14 32 -48 54 -77 63
-81 106 -141 106 -151 0 -5 11 -19 25 -32 14 -13 25 -29 25 -35 0 -7 9 -20 21
-31 12 -10 29 -35 39 -54 10 -19 28 -43 39 -52 12 -10 21 -24 21 -32 0 -8 10
-22 21 -30 12 -8 31 -30 43 -49 22 -37 58 -88 103 -150 15 -21 48 -67 73 -102
25 -35 48 -65 51 -65 14 0 19 75 19 304 0 245 -5 290 -35 323 -38 41 -135 178
-135 189 0 7 -8 19 -19 26 -10 7 -26 28 -35 46 -9 17 -20 32 -25 32 -5 0 -19
20 -31 45 -12 25 -26 45 -31 45 -5 0 -16 15 -25 33 -10 17 -23 37 -30 42 -8 6
-35 42 -61 81 -27 39 -69 99 -95 135 -26 35 -58 79 -70 97 -13 19 -35 49 -50
67 -16 18 -28 36 -28 40 0 4 -13 23 -30 42 -16 18 -30 39 -30 45 0 5 -12 26
-27 44 -68 83 -81 101 -97 132 -9 17 -21 32 -27 32 -5 0 -15 14 -20 30 -6 16
-15 30 -19 30 -5 0 -32 35 -61 78 -29 42 -63 91 -76 107 -55 70 -95 127 -123
178 -11 20 -25 37 -30 37 -5 0 -19 18 -30 40 -11 22 -24 40 -29 40 -4 0 -16
18 -26 40 -10 22 -22 40 -26 40 -4 0 -21 19 -37 43 -71 100 -125 175 -157 217
-19 25 -43 61 -54 80 -10 19 -28 44 -40 54 -12 11 -21 23 -21 29 0 5 -11 23
-26 41 -71 87 -93 118 -99 136 -4 11 -10 20 -14 20 -4 0 -27 30 -51 68 -24 37
-54 83 -66 102 -31 48 -46 171 -33 270 9 59 18 84 50 132 22 32 51 66 65 75
21 14 23 18 10 25 -16 9 -103 -7 -122 -23 -24 -20 -116 -22 -164 -4 -25 9 -65
21 -89 26 -75 16 -210 113 -241 176 -8 15 -24 40 -35 54 -15 18 -27 60 -40
133 -17 103 -17 109 1 208 13 72 25 110 41 129 13 15 23 31 23 37 0 16 98 109
156 148 60 40 175 73 254 73 66 1 199 -32 244 -60 57 -35 143 -117 178 -169
29 -43 57 -120 80 -221 7 -32 7 -60 0 -90 -26 -107 -51 -177 -75 -213 -26 -37
-36 -76 -19 -76 4 0 46 10 93 22 l86 22 83 -19 c89 -20 147 -53 208 -116 38
-40 47 -50 109 -134 20 -27 49 -67 65 -87 15 -20 28 -40 28 -44 0 -4 9 -17 19
-28 28 -30 67 -85 91 -128 11 -21 25 -38 31 -38 5 0 16 -15 24 -33 8 -19 21
-40 30 -47 9 -8 25 -30 35 -51 11 -20 26 -39 35 -42 8 -4 15 -12 15 -18 0 -6
12 -26 28 -44 15 -18 38 -49 52 -69 14 -20 48 -67 77 -105 28 -38 58 -82 66
-97 8 -16 24 -38 36 -48 12 -11 21 -24 21 -31 0 -7 12 -26 28 -43 41 -46 75
-92 92 -122 14 -26 68 -101 131 -182 16 -20 29 -41 29 -46 0 -5 11 -19 25 -32
14 -13 25 -29 25 -36 0 -20 21 -28 31 -13 5 8 9 706 9 1582 0 1715 4 1593 -59
1667 l-30 35 -2768 3 -2769 2 -42 -32z m580 -6273 c58 -49 63 -65 63 -219 0
-89 4 -141 11 -143 5 -2 32 11 59 29 47 31 50 32 169 32 67 1 137 -2 156 -7
53 -11 137 -89 151 -140 6 -23 18 -64 26 -90 18 -59 18 -168 -1 -267 -8 -41
-18 -169 -21 -285 -5 -143 -11 -217 -20 -231 -24 -37 -85 -49 -183 -35 -80 11
-89 15 -119 48 -18 20 -36 52 -39 71 -8 42 4 309 17 377 24 124 27 155 18 189
-11 39 -54 79 -78 72 -9 -2 -33 -7 -53 -10 -94 -16 -143 -176 -157 -519 -8
-180 -9 -191 -30 -208 -33 -27 -84 -33 -169 -19 -99 16 -96 14 -132 69 -28 45
-30 53 -30 149 0 56 9 164 20 239 11 78 24 253 30 403 5 146 17 310 25 365 8
55 15 106 15 113 0 6 10 22 21 33 19 19 30 21 119 17 90 -3 100 -6 132 -33z
m5125 9 c16 -12 43 -50 62 -85 l34 -64 -18 -120 c-21 -139 -30 -275 -20 -275
9 0 90 64 125 100 14 14 52 49 84 78 51 45 65 52 100 52 35 0 46 -6 83 -46 24
-25 43 -54 43 -63 0 -10 11 -39 25 -65 l25 -48 -34 -56 c-20 -32 -52 -68 -73
-81 -21 -13 -49 -32 -63 -41 -14 -10 -36 -21 -49 -25 -30 -9 -96 -54 -96 -65
0 -9 115 -137 201 -223 111 -111 124 -133 124 -197 0 -68 -20 -98 -98 -151
-38 -26 -53 -30 -85 -26 -21 3 -48 15 -58 26 -11 12 -27 21 -35 21 -18 0 -130
113 -150 152 -8 16 -19 28 -25 28 -5 0 -18 20 -29 45 -21 48 -27 52 -54 32
-14 -10 -19 -35 -25 -124 -4 -65 -13 -118 -20 -127 -7 -8 -32 -18 -56 -22 -44
-6 -176 11 -206 27 -23 12 -69 131 -69 178 0 22 7 72 15 112 9 43 19 178 25
341 6 148 17 318 25 378 9 61 19 160 24 221 10 142 10 142 143 137 79 -3 103
-8 125 -24z m-5776 -313 c101 -17 190 -99 203 -187 10 -71 -9 -145 -47 -177
-45 -39 -89 -57 -142 -57 -46 0 -85 24 -85 53 0 7 -14 32 -32 55 -37 48 -69
54 -112 21 -30 -24 -34 -59 -8 -81 23 -20 145 -78 164 -78 8 0 32 -11 52 -25
20 -14 41 -25 46 -25 22 0 99 -89 124 -141 37 -80 36 -154 -5 -245 -37 -81
-95 -137 -157 -154 -24 -6 -60 -19 -80 -30 -53 -29 -228 -28 -290 0 -24 11
-70 24 -103 29 -43 7 -70 19 -99 43 -46 38 -54 60 -48 130 5 43 11 56 47 89
33 31 49 39 80 39 23 0 48 -8 64 -20 31 -25 118 -42 190 -38 46 3 52 6 55 26
5 31 -21 59 -63 66 -18 4 -45 16 -59 27 -15 11 -43 25 -63 31 -48 13 -116 73
-159 140 -32 51 -33 56 -34 158 0 100 1 107 30 150 16 25 30 49 30 53 0 17 75
79 131 108 83 45 239 61 370 40z m2107 -18 c20 -11 52 -28 70 -37 17 -10 37
-27 44 -39 6 -12 19 -28 29 -37 21 -17 53 -141 53 -205 0 -22 -5 -78 -12 -125
-7 -46 -12 -128 -12 -181 l0 -97 49 -36 c65 -48 77 -83 47 -136 -8 -14 -24
-44 -35 -68 -15 -32 -31 -48 -63 -62 -24 -11 -52 -27 -62 -35 -30 -23 -127
-20 -158 5 -14 11 -38 24 -52 30 -14 5 -31 21 -36 35 -13 34 -58 34 -90 0 -13
-14 -42 -30 -64 -36 -22 -6 -51 -19 -64 -30 -34 -26 -166 -27 -202 -2 -14 10
-45 25 -70 33 -36 12 -50 24 -69 60 -14 25 -30 50 -37 57 -34 35 -27 182 12
234 13 18 24 38 24 43 0 13 66 83 106 112 16 12 46 27 67 33 20 7 37 16 37 20
0 4 -32 25 -72 47 -51 28 -74 46 -79 64 -11 38 -10 141 1 180 21 75 154 170
266 190 27 5 113 7 192 6 117 -3 149 -7 180 -23z m3007 -14 c91 -46 128 -95
156 -204 22 -89 22 -90 5 -215 -9 -69 -16 -159 -16 -201 0 -76 0 -77 39 -112
21 -19 44 -36 52 -39 22 -7 15 -101 -10 -136 -11 -16 -25 -41 -31 -56 -6 -17
-26 -34 -52 -47 -24 -10 -52 -26 -62 -34 -30 -23 -127 -20 -158 5 -14 11 -38
24 -52 30 -14 5 -31 21 -36 35 -13 35 -58 34 -97 -4 -17 -16 -46 -32 -64 -36
-19 -4 -42 -15 -53 -24 -12 -11 -42 -17 -96 -19 -70 -4 -83 -1 -122 22 -25 14
-52 26 -62 26 -21 0 -58 39 -92 99 -23 39 -27 58 -27 126 -1 71 2 86 28 130
38 66 85 125 100 125 6 0 21 11 34 24 12 12 40 28 61 35 22 6 40 16 40 20 0 5
-32 25 -71 46 -84 44 -92 59 -87 171 3 80 3 81 51 137 55 65 144 114 229 127
29 5 115 7 191 5 133 -3 141 -4 202 -36z m-2405 -9 c53 -27 63 -37 90 -90 26
-52 32 -77 40 -187 6 -71 13 -146 16 -168 8 -50 30 -105 43 -105 12 0 31 55
31 92 0 16 9 57 21 91 11 34 27 98 34 142 15 91 59 223 80 245 11 11 38 14
111 13 85 -2 102 -5 152 -31 64 -33 82 -59 82 -117 0 -59 -54 -233 -99 -320
-12 -21 -21 -46 -21 -55 0 -9 -11 -31 -24 -49 -13 -18 -27 -49 -31 -69 -4 -20
-15 -46 -25 -57 -10 -11 -23 -38 -29 -61 -6 -22 -20 -49 -30 -58 -11 -10 -23
-32 -26 -50 -4 -17 -17 -47 -30 -66 -12 -19 -29 -48 -36 -65 -18 -37 -67 -53
-171 -54 -119 -1 -170 13 -212 60 -20 21 -36 49 -36 62 0 12 -9 39 -20 60 -11
21 -27 69 -35 108 -8 38 -21 82 -29 97 -8 15 -19 53 -25 84 -5 32 -17 71 -26
88 -9 17 -21 56 -26 87 -6 32 -19 73 -29 93 -10 20 -23 61 -29 92 -5 31 -19
73 -30 93 -15 29 -17 43 -10 65 21 60 50 71 176 65 78 -4 102 -9 153 -35z
m1601 11 c44 -54 9 -201 -72 -296 -72 -86 -106 -127 -129 -155 -58 -72 -98
-123 -125 -160 -16 -22 -40 -53 -52 -67 -13 -14 -23 -37 -23 -49 l0 -24 150 0
c162 0 202 -9 215 -51 9 -26 -23 -169 -42 -191 -28 -32 -133 -40 -486 -36
-392 4 -367 -4 -367 106 0 47 6 77 22 109 23 46 157 211 183 226 8 4 15 14 15
20 0 7 12 24 28 39 15 14 41 44 57 67 17 23 42 56 56 74 39 48 64 95 55 104
-4 4 -60 9 -124 11 -64 1 -126 5 -138 7 -30 7 -44 46 -44 126 0 67 1 71 41
114 23 25 52 46 67 48 15 2 177 4 360 3 l334 -1 19 -24z"/>
<path d="M3084 1056 c-23 -10 -33 -23 -38 -47 -3 -18 -16 -44 -28 -57 -33 -34
-10 -44 87 -36 103 8 115 15 115 63 0 22 -8 48 -17 60 -23 27 -79 35 -119 17z"/>
<path d="M3099 711 c-46 -8 -104 -70 -94 -101 8 -26 51 -43 84 -35 31 8 89 61
102 94 18 45 -7 56 -92 42z"/>
<path d="M6064 1051 c-18 -11 -34 -31 -38 -48 -4 -15 -17 -38 -29 -51 -32 -34
-9 -44 88 -36 65 5 84 10 104 29 28 28 23 63 -14 101 -29 29 -69 31 -111 5z"/>
<path d="M6082 711 c-31 -5 -51 -16 -67 -37 -48 -58 -21 -113 48 -99 45 10
109 78 105 113 -3 30 -18 34 -86 23z"/>
<path d="M4934 6891 c-25 -4 -56 -19 -77 -38 -19 -17 -39 -32 -44 -34 -5 -2
-24 -29 -41 -60 -28 -50 -32 -65 -32 -133 0 -76 4 -89 56 -177 6 -10 35 -35
65 -56 54 -37 55 -38 154 -38 113 0 123 5 210 94 47 48 55 75 55 176 0 119
-10 139 -119 239 -34 31 -130 43 -227 27z"/>
<path d="M5363 6275 c-3 -9 -3 -19 1 -22 7 -7 36 16 36 28 0 15 -30 10 -37 -6z"/>
<path d="M5510 6080 c-17 -16 -37 -30 -45 -30 -14 0 -39 -20 -118 -95 -41 -39
-42 -42 -42 -106 0 -57 4 -70 28 -98 15 -18 27 -38 27 -45 0 -7 9 -21 20 -31
12 -11 31 -36 42 -57 12 -21 26 -38 30 -38 5 0 16 -16 24 -35 8 -19 18 -35 23
-35 5 0 17 -13 28 -29 31 -50 132 -194 168 -241 19 -25 44 -62 55 -82 11 -21
25 -38 30 -38 6 0 16 -12 23 -27 6 -16 24 -41 39 -56 16 -16 28 -34 28 -42 0
-7 7 -19 16 -26 9 -8 27 -30 40 -49 31 -46 119 -169 141 -197 10 -12 29 -38
43 -58 14 -20 40 -56 58 -81 17 -24 32 -48 32 -53 0 -4 9 -16 21 -27 12 -10
27 -31 35 -46 8 -15 25 -38 39 -52 14 -14 25 -31 25 -39 0 -7 10 -23 23 -34
12 -11 38 -44 57 -72 19 -28 46 -67 60 -86 14 -19 36 -50 50 -70 14 -20 40
-54 58 -77 17 -22 32 -46 32 -54 0 -7 8 -18 19 -23 10 -6 24 -24 31 -41 7 -16
16 -30 20 -30 5 0 20 -19 34 -42 15 -24 42 -63 61 -88 44 -57 85 -114 109
-154 11 -17 38 -54 60 -82 23 -28 46 -60 53 -70 29 -46 33 8 31 427 l-3 415
-41 50 c-22 27 -64 83 -93 124 -28 41 -67 95 -86 120 -19 25 -44 62 -55 83
-11 20 -25 37 -30 37 -6 0 -16 12 -22 28 -7 15 -20 36 -30 47 -10 11 -30 36
-43 55 -13 19 -36 51 -50 70 -13 19 -45 64 -69 100 -25 36 -53 74 -63 85 -10
11 -23 32 -30 47 -7 16 -17 28 -22 28 -6 0 -19 17 -30 38 -11 21 -27 44 -36
52 -9 7 -22 28 -30 47 -8 18 -19 33 -24 33 -6 0 -20 18 -31 40 -11 22 -24 40
-29 40 -4 0 -14 12 -22 28 -7 15 -24 41 -37 57 -29 36 -127 171 -162 221 -14
20 -37 51 -52 69 -16 18 -28 38 -28 44 0 7 -11 23 -24 36 -14 14 -31 35 -38
48 -16 29 -73 108 -88 122 -7 6 -21 19 -33 31 -36 34 -63 44 -121 44 -48 0
-59 -4 -86 -30z"/>
<path d="M2359 5960 c-24 -16 -50 -30 -56 -30 -7 0 -24 -17 -38 -37 -14 -21
-32 -48 -41 -61 -13 -18 -17 -45 -17 -122 0 -113 5 -124 85 -201 44 -42 58
-49 117 -60 82 -14 194 1 226 31 106 100 110 109 110 230 0 101 -1 108 -27
138 -15 18 -29 40 -33 51 -3 10 -19 24 -35 31 -16 6 -43 23 -61 36 -28 20 -44
24 -109 24 -69 0 -82 -3 -121 -30z"/>
<path d="M4380 5422 c-30 -14 -95 -61 -117 -85 -37 -40 -76 -152 -71 -200 9
-69 56 -155 109 -197 94 -74 252 -75 344 -1 60 47 109 145 108 216 0 99 -85
221 -180 261 -33 14 -166 18 -193 6z"/>
<path d="M3040 5202 c-13 -2 -37 -15 -53 -28 -16 -13 -33 -24 -39 -24 -11 0
-55 -33 -126 -97 l-47 -42 1 -73 c0 -70 3 -76 45 -137 59 -85 83 -118 118
-166 17 -22 39 -56 50 -75 10 -19 28 -44 40 -54 12 -11 21 -24 21 -31 0 -7 9
-20 21 -31 12 -10 30 -36 40 -56 11 -21 24 -38 30 -38 5 0 17 -16 25 -35 8
-19 18 -35 23 -35 5 0 17 -13 28 -29 38 -59 94 -139 153 -216 33 -44 67 -95
75 -112 8 -18 20 -33 25 -33 5 0 17 -15 26 -32 9 -18 23 -37 30 -41 8 -4 23
-25 34 -45 11 -20 36 -57 55 -82 38 -49 80 -107 107 -149 17 -25 23 -34 71
-96 13 -16 47 -64 75 -106 29 -42 59 -82 67 -89 8 -7 15 -18 15 -25 0 -6 9
-20 21 -31 12 -10 30 -36 40 -56 11 -21 23 -38 28 -38 4 0 31 -35 60 -77 28
-43 65 -96 82 -118 16 -22 41 -56 54 -75 13 -19 38 -53 54 -75 17 -22 40 -57
51 -77 11 -21 25 -38 30 -38 5 0 18 -17 29 -37 10 -21 28 -47 40 -57 12 -11
21 -26 21 -34 0 -7 12 -26 28 -41 15 -15 43 -51 62 -79 19 -29 53 -76 75 -105
41 -53 91 -124 111 -159 6 -10 20 -29 31 -41 19 -22 29 -36 78 -109 16 -24 36
-40 57 -45 38 -10 574 -11 583 -1 9 9 -46 109 -72 131 -13 10 -23 24 -23 31 0
7 -9 21 -21 32 -12 10 -30 36 -40 56 -11 21 -24 38 -29 38 -6 0 -18 16 -27 35
-9 19 -20 35 -24 35 -4 0 -19 19 -33 43 -15 23 -42 62 -61 87 -19 25 -38 52
-41 60 -4 8 -15 24 -25 35 -28 31 -66 86 -89 128 -11 20 -25 37 -30 37 -5 0
-19 18 -30 40 -11 22 -24 40 -29 40 -5 0 -16 16 -25 35 -9 19 -27 46 -39 58
-12 13 -38 47 -57 76 -34 50 -75 107 -104 146 -60 78 -73 96 -88 122 -10 15
-33 48 -53 73 -19 25 -43 61 -54 80 -11 19 -29 43 -40 52 -12 10 -21 24 -21
33 0 8 -11 22 -25 31 -14 9 -25 22 -25 29 0 7 -15 31 -32 53 -18 23 -43 56
-56 74 -13 18 -50 69 -82 113 -33 44 -60 85 -60 92 0 6 -8 18 -19 25 -10 7
-26 28 -35 46 -9 17 -21 32 -26 32 -5 0 -19 17 -30 38 -26 46 -64 101 -87 125
-9 9 -26 32 -37 51 -46 74 -77 116 -86 116 -6 0 -10 6 -10 13 0 7 -8 22 -18
33 -10 10 -42 53 -70 94 -29 41 -68 95 -88 120 -19 25 -41 60 -49 77 -9 18
-24 39 -35 45 -11 7 -20 18 -20 25 0 7 -13 27 -29 45 -15 18 -36 48 -45 66 -9
17 -20 32 -25 32 -5 0 -18 15 -29 33 -12 17 -34 50 -51 72 -17 22 -38 54 -47
70 -32 58 -132 175 -149 175 -7 0 -20 9 -29 19 -18 20 -54 29 -96 23z"/>
<path d="M4740 4740 c0 -13 11 -13 30 0 12 8 11 10 -7 10 -13 0 -23 -4 -23
-10z"/>
<path d="M1879 4371 c-39 -8 -129 -75 -129 -96 0 -7 -10 -19 -22 -27 -21 -14
-23 -25 -26 -124 -4 -109 -4 -109 27 -147 16 -21 33 -47 36 -57 3 -11 16 -22
28 -26 12 -4 41 -20 64 -36 39 -29 45 -30 126 -27 71 3 89 8 109 26 13 12 35
26 51 32 15 6 30 19 34 28 3 10 19 33 35 52 30 33 30 34 26 150 -3 129 4 114
-103 219 -35 35 -162 51 -256 33z"/>
<path d="M2498 3580 c-30 -9 -54 -26 -158 -113 -75 -62 -76 -64 -70 -167 2
-35 34 -96 81 -153 26 -32 90 -122 133 -187 13 -19 31 -41 40 -49 9 -7 16 -19
16 -26 0 -6 9 -20 21 -31 12 -10 30 -36 41 -57 10 -21 25 -40 33 -43 8 -3 17
-16 21 -27 4 -12 18 -37 33 -54 14 -18 38 -48 54 -67 15 -18 27 -37 27 -41 0
-4 12 -22 28 -41 15 -18 43 -56 62 -84 31 -46 56 -80 106 -145 27 -37 63 -90
80 -120 9 -16 23 -34 30 -38 8 -4 23 -25 33 -45 10 -20 28 -46 40 -56 12 -11
21 -24 21 -29 0 -6 17 -27 38 -46 l38 -36 287 1 c158 0 290 3 293 6 9 9 -23
69 -71 133 -24 33 -48 67 -51 75 -4 8 -15 24 -25 35 -28 31 -66 86 -89 128
-11 20 -25 37 -30 37 -6 0 -18 16 -27 35 -9 19 -20 35 -24 35 -4 0 -21 21 -38
48 -17 26 -41 61 -53 78 -43 60 -143 197 -170 233 -15 20 -35 50 -44 66 -9 17
-27 41 -39 55 -13 14 -26 35 -29 47 -4 12 -16 25 -27 28 -10 4 -19 12 -19 20
0 7 -16 32 -35 55 -19 23 -35 46 -35 50 0 5 -9 19 -20 32 -41 49 -69 86 -121
162 -30 43 -66 95 -81 115 -15 20 -36 48 -45 62 -10 14 -34 44 -53 66 -48 56
-126 76 -202 53z"/>
</g>
</svg>
